<svg id="Capa_1" enable-background="new 0 0 512 512" height="512" viewBox="0 0 512 512" width="512" xmlns="http://www.w3.org/2000/svg"><path d="m7.945 241.297h496.11c-1.881-32.234-9.906-62.814-22.922-90.594h-450.267c-13.015 27.78-21.04 58.36-22.921 90.594z" fill="#fcf2b6"/><path d="m87.5 176c0-8.54.432-16.979 1.273-25.297h-57.907c-13.016 27.78-21.04 58.36-22.922 90.594h88.243c-5.653-20.81-8.687-42.697-8.687-65.297z" fill="#ffe89c"/><path d="m57.879 406h396.242c25.914-34.174 43.186-75.255 48.571-120h-493.384c5.385 44.745 22.657 85.826 48.571 120z" fill="#ffc247"/><path d="m57.879 406h183.911c-56.107-23.007-101.925-65.938-128.659-120h-103.823c5.385 44.745 22.657 85.826 48.571 120z" fill="#ffb13b"/><path d="m256 504.5c61.021 0 116.893-22.007 160.144-58.5h-320.288c43.251 36.493 99.123 58.5 160.144 58.5z" fill="#ffda45"/><path d="m57.879 406c11.147 14.7 23.892 28.116 37.977 40h320.289c14.084-11.884 26.83-25.3 37.977-40z" fill="#ff915e"/><path d="m430.209 406c-29.054 11.919-60.861 18.5-94.209 18.5s-65.154-6.585-94.21-18.5h-183.911c11.147 14.7 23.892 28.116 37.977 40h320.289c14.081-11.883 26.824-25.302 37.969-40z" fill="#f77f43"/><path d="m454.114 406c4.613-6.083 8.954-12.383 13-18.886-11.689 7.275-24.027 13.603-36.905 18.886z" fill="#f5cd62"/><path d="m24.312 166h463.377c-15.201-39.104-40.018-73.4-71.544-100h-320.289c-31.527 26.6-56.343 60.896-71.544 100z" fill="#ffc247"/><path d="m95.863 66c-31.53 26.599-56.35 60.897-71.554 100h63.396c1.419-35.803 10.419-69.652 25.432-100z" fill="#ffb13b"/><path d="m416.144 66c-43.251-36.493-99.123-58.5-160.144-58.5s-116.893 22.007-160.144 58.5z" fill="#ffe45c"/><ellipse cx="175.358" cy="127.007" fill="#f2f6fc" rx="29.756" ry="23.696"/><ellipse cx="336.642" cy="127.147" fill="#f2f6fc" rx="29.756" ry="23.696"/><path d="m192.72 111.561c-.002 0-.004 0-.006 0-4.142-.003-7.497-3.363-7.494-7.505l.009-11.876c.003-4.14 3.36-7.495 7.5-7.495h.006c4.142.003 7.497 3.363 7.494 7.505l-.009 11.876c-.003 4.141-3.361 7.495-7.5 7.495z"/><path d="m319.321 111.685c-.002 0-.004 0-.006 0-4.142-.003-7.497-3.363-7.494-7.505l.009-11.876c.003-4.14 3.36-7.495 7.5-7.495h.006c4.142.003 7.497 3.363 7.494 7.505l-.009 11.876c-.003 4.141-3.36 7.495-7.5 7.495z"/><path d="m272.704 116.91c-.002 0-.004 0-.007 0l-33.378-.029c-4.142-.003-7.497-3.364-7.493-7.506.004-4.14 3.361-7.494 7.5-7.494h.007l33.378.029c4.142.003 7.497 3.364 7.493 7.506-.004 4.141-3.36 7.494-7.5 7.494z"/><path d="m502.692 226h-61.129c-10.398 0-20.469-3.337-29.003-9.278-9.706-6.758-21.502-10.722-34.227-10.722s-24.52 3.964-34.227 10.722c-8.533 5.941-18.605 9.278-29.003 9.278h-305.795c-1.184 9.836-1.808 19.845-1.808 30 0 17.127 1.734 33.848 5.033 50h302.571c10.398 0 20.47 3.337 29.003 9.278 9.707 6.758 21.502 10.722 34.227 10.722s24.521-3.964 34.227-10.722c8.533-5.941 18.605-9.278 29.003-9.278h57.904c3.299-16.152 5.033-32.873 5.033-50-.001-10.155-.625-20.164-1.809-30z" fill="#ff915e"/><path d="m92.533 226h-83.225c-1.184 9.836-1.808 19.845-1.808 30 0 17.127 1.734 33.848 5.033 50h111.657c-14.903-24.23-25.775-51.205-31.657-80z" fill="#f77f43"/><path d="m113.136 66c3.583-7.243 7.503-14.291 11.75-21.114-10.192 6.343-19.887 13.407-29.023 21.114z" fill="#ffda45"/><path d="m437.02 437.02c48.351-48.353 74.98-112.64 74.98-181.02s-26.629-132.667-74.98-181.02c-48.352-48.351-112.64-74.98-181.02-74.98s-132.668 26.629-181.02 74.98c-48.351 48.353-74.98 112.64-74.98 181.02s26.629 132.667 74.98 181.02c48.352 48.351 112.64 74.98 181.02 74.98 61.035 0 118.799-21.231 164.89-60.173.021-.017.04-.034.061-.051 5.526-4.671 10.893-9.581 16.069-14.756zm-422.02-181.02c0-7.588.37-15.089 1.059-22.5h162.67c4.143 0 7.5-3.358 7.5-7.5s-3.357-7.5-7.5-7.5h-160.806c2.438-15.538 6.36-30.589 11.627-45h452.901c5.267 14.411 9.188 29.462 11.626 45h-52.515c-8.716 0-17.263-2.743-24.717-7.933-11.34-7.894-24.657-12.067-38.513-12.067s-27.174 4.173-38.512 12.067c-7.454 5.189-16.001 7.933-24.718 7.933h-108.373c-4.143 0-7.5 3.358-7.5 7.5s3.357 7.5 7.5 7.5h108.374c11.797 0 23.308-3.673 33.288-10.623 8.812-6.135 19.165-9.377 29.941-9.377s21.13 3.243 29.942 9.377c9.98 6.95 21.491 10.623 33.287 10.623h54.378c.691 7.411 1.061 14.912 1.061 22.5 0 14.498-1.288 28.7-3.753 42.5h-51.684c-11.796 0-23.307 3.673-33.287 10.623-8.813 6.135-19.166 9.377-29.942 9.377s-21.13-3.243-29.941-9.377c-9.98-6.95-21.491-10.623-33.288-10.623h-296.352c-2.465-13.8-3.753-28.002-3.753-42.5zm378.945-197.5h-275.89c39.107-27.397 86.678-43.5 137.945-43.5s98.838 16.103 137.945 43.5zm-295.173 15h314.456c26.863 23.175 48.564 52.169 63.146 85h-440.748c14.582-32.831 36.284-61.825 63.146-85zm-25.042 340h231.591c4.143 0 7.5-3.358 7.5-7.5s-3.357-7.5-7.5-7.5h-243.55c-18.456-25.088-32.17-53.863-39.821-85h293.153c8.717 0 17.264 2.743 24.718 7.933 11.338 7.894 24.655 12.067 38.512 12.067 13.855 0 27.173-4.173 38.513-12.067 7.454-5.189 16.001-7.933 24.717-7.933h48.487c-7.651 31.137-21.365 59.912-39.821 85h-116.908c-4.143 0-7.5 3.358-7.5 7.5s3.357 7.5 7.5 7.5h104.949c-7.734 8.938-16.116 17.301-25.067 25.021h-314.406c-8.951-7.72-17.333-16.083-25.067-25.021zm44.355 40.021h275.83c-39.102 27.384-86.661 43.479-137.915 43.479s-98.814-16.095-137.915-43.479z"/></svg>