<svg id="Layer_1" height="512" viewBox="0 0 512 512" width="512" xmlns="http://www.w3.org/2000/svg" data-name="Layer 1"><path d="m67.05 366.04-2.14-4.392a243.784 243.784 0 0 1 -23.7-95.668l-.2-9.944v-.036c0-116.71 81.616-214.344 190.877-238.986.174-1.475.4-2.937.693-4.374l-.05-.53c-124.29 11.82-221.52 116.5-221.52 243.89q0 5.01.2 9.98a244.829 244.829 0 0 0 244.79 235.02c5.013 0 9.986-.169 14.924-.466a245.054 245.054 0 0 1 -203.874-134.494z" fill="#d4e1f4"/><g fill="#0635c9"><path d="m496.965 255.9a49.107 49.107 0 1 1 -14.452-82.267 6 6 0 1 0 4.463-11.138 61.132 61.132 0 1 0 17.983 102.354 6 6 0 0 0 -7.994-8.949z"/><path d="m42.859 250a60.73 60.73 0 0 0 -35.331 11.24 6 6 0 1 0 6.944 9.787 49.126 49.126 0 1 1 28.387 89.221 49.922 49.922 0 0 1 -5.031-.254 6 6 0 0 0 -1.211 11.939 62.148 62.148 0 0 0 6.242.315 61.124 61.124 0 0 0 0-122.248z"/><path d="m274.379 209.576a41.525 41.525 0 1 0 41.521 41.524 41.572 41.572 0 0 0 -41.521-41.524zm0 71.049a29.525 29.525 0 1 1 29.521-29.525 29.558 29.558 0 0 1 -29.521 29.525z"/><path d="m330.853 23a46.674 46.674 0 1 1 -92.4-9.19l-11.753-2.39a58.616 58.616 0 0 0 57.479 70.38 58.434 58.434 0 0 0 58.674-58.8z"/><path d="m363.8 381.073a30.5 30.5 0 1 0 30.5 30.5 30.534 30.534 0 0 0 -30.5-30.5zm0 49a18.5 18.5 0 1 1 18.5-18.5 18.521 18.521 0 0 1 -18.5 18.499z"/><path d="m181.281 384.748a18.25 18.25 0 1 0 18.25 18.252 18.27 18.27 0 0 0 -18.25-18.252zm0 24.5a6.25 6.25 0 1 1 6.25-6.25 6.257 6.257 0 0 1 -6.25 6.249z"/><path d="m184.831 139.627a30.5 30.5 0 1 0 -30.5 30.5 30.535 30.535 0 0 0 30.5-30.5zm-30.5 18.5a18.5 18.5 0 1 1 18.5-18.5 18.521 18.521 0 0 1 -18.499 18.5z"/></g><path d="m256.005 5a251 251 0 0 0 -177.481 428.48 250.995 250.995 0 1 0 354.961-354.96 249.348 249.348 0 0 0 -177.48-73.52zm168.995 420a239 239 0 1 1 -337.991-337.995 239 239 0 1 1 337.991 337.995z" fill="#1ae5be"/></svg>