<svg id="Capa_1" enable-background="new 0 0 512 512" height="512" viewBox="0 0 512 512" width="512" xmlns="http://www.w3.org/2000/svg"><g><path d="m437.02 74.98c-48.353-48.351-112.64-74.98-181.02-74.98s-132.667 26.629-181.02 74.98c-48.351 48.353-74.98 112.64-74.98 181.02s26.629 132.667 74.98 181.02c48.353 48.351 112.64 74.98 181.02 74.98s132.667-26.629 181.02-74.98c48.351-48.353 74.98-112.64 74.98-181.02s-26.629-132.667-74.98-181.02zm-181.02-44.98c59.323 0 113.369 22.986 153.731 60.505-33.143 1.766-61.972 23.538-72.566 55.314-6.964 20.893-26.44 34.931-48.464 34.931h-22.659c-8.284 0-15 6.716-15 15s6.716 15 15 15h22.659c34.957 0 65.87-22.281 76.925-55.443 6.965-20.894 26.441-34.932 48.464-34.932h22.577c28.449 37.802 45.333 84.777 45.333 135.625 0 1.699-.027 3.393-.065 5.083h-151.609c-33.598 0-66.705-11.359-93.225-31.985-31.758-24.702-71.407-38.306-111.643-38.306h-85.854c5.373-17.798 12.885-34.675 22.239-50.334h66.586c28.79 0 56.825-10.15 78.942-28.58 16.735-13.947 37.95-21.628 59.736-21.628h21.035c8.284 0 15-6.716 15-15s-6.716-15-15-15h-21.035c-28.791 0-56.827 10.15-78.942 28.581-16.736 13.946-37.95 21.627-59.736 21.627h-45.177c41.489-49.167 103.529-80.458 172.748-80.458zm0 452c-64.386 0-122.567-27.067-163.77-70.417h50.288c31.878 0 61.972-15.486 80.501-41.427 12.91-18.074 33.877-28.864 56.089-28.864h7.018c8.284 0 15-6.716 15-15s-6.716-15-15-15h-7.018c-31.879 0-61.973 15.486-80.501 41.427-12.91 18.074-33.878 28.864-56.089 28.864h-74.322c-24.111-35.941-38.196-79.146-38.196-125.583 0-11.975.945-23.732 2.748-35.208h92.711c33.598 0 66.706 11.359 93.225 31.985 31.759 24.702 71.408 38.306 111.643 38.306h148.947c-1.617 10.331-3.943 20.429-6.914 30.25h-61.866c-39.019 0-73.595 23.409-88.086 59.638-9.909 24.772-33.552 40.779-60.232 40.779h-36.299c-8.284 0-15 6.716-15 15s6.716 15 15 15h36.299c39.019 0 73.595-23.409 88.086-59.637 9.909-24.773 33.552-40.78 60.232-40.78h50.385c-36.024 77.105-114.308 130.667-204.879 130.667z"/><path d="m179.073 261.925c-11.741-7.045-27.038-10.925-43.073-10.925s-31.332 3.88-43.073 10.925c-13.935 8.36-21.927 20.781-21.927 34.075s7.992 25.715 21.927 34.075c11.741 7.045 27.038 10.925 43.073 10.925s31.332-3.88 43.073-10.925c13.935-8.36 21.927-20.781 21.927-34.075s-7.992-25.715-21.927-34.075zm-43.073 49.075c-21.712 0-35-9.712-35-15s13.288-15 35-15 35 9.712 35 15-13.288 15-35 15z"/><circle cx="276" cy="131" r="15"/><circle cx="416" cy="196" r="15"/></g></svg>